HIERARCHY
ROOT Pelvis
{
	OFFSET 0.000000 0.941512 0.000000
	CHANNELS 6 Xposition Yposition Zposition Zrotation Yrotation Xrotation 
	JOINT Pelvis_L_Hip
	{
		OFFSET 0.000000 0.000000 0.000000
		CHANNELS 3 Zrotation Yrotation Xrotation
		JOINT L_Hip
		{
			OFFSET 0.062321 -0.080322 -0.016990
			CHANNELS 3 Zrotation Yrotation Xrotation
			JOINT L_Knee
			{
				OFFSET 0.093051 -0.381305 -0.029784
				CHANNELS 3 Zrotation Yrotation Xrotation
				JOINT L_Ankle
				{
					OFFSET -0.010371 -0.431000 -0.033614
					CHANNELS 3 Zrotation Yrotation Xrotation
					End Site #name: L_Foot
					{
						OFFSET 0.069299 -0.038670 0.119418
					}
				}
			}
		}
	}
	JOINT Pelvis_R_Hip
	{
		OFFSET 0.000000 0.000000 0.000000
		CHANNELS 3 Zrotation Yrotation Xrotation
		JOINT R_Hip
		{
			OFFSET -0.055334 -0.094904 -0.002373
			CHANNELS 3 Zrotation Yrotation Xrotation
			JOINT R_Knee
			{
				OFFSET -0.064207 -0.384370 -0.019592
				CHANNELS 3 Zrotation Yrotation Xrotation
				JOINT R_Ankle
				{
					OFFSET 0.025418 -0.419734 -0.065953
					CHANNELS 3 Zrotation Yrotation Xrotation
					End Site #name: R_Foot
					{
						OFFSET -0.057233 -0.039888 0.132134
					}
				}
			}
		}
	}
	JOINT Pelvis_Spine1
	{
		OFFSET 0.000000 0.000000 0.000000
		CHANNELS 3 Zrotation Yrotation Xrotation
		JOINT Spine1
		{
			OFFSET -0.005562 0.124093 -0.043360
			CHANNELS 3 Zrotation Yrotation Xrotation
			JOINT Spine2
			{
				OFFSET 0.012244 0.139499 0.029894
				CHANNELS 3 Zrotation Yrotation Xrotation
				JOINT Spine3
				{
					OFFSET -0.002556 0.056561 0.009225
					CHANNELS 3 Zrotation Yrotation Xrotation
					JOINT Spine3_Neck
					{
						OFFSET 0.000000 0.000000 0.000000
						CHANNELS 3 Zrotation Yrotation Xrotation
						JOINT Neck
						{
							OFFSET -0.005205 0.217920 -0.024551
							CHANNELS 3 Zrotation Yrotation Xrotation
							End Site #name: Head
							{
								OFFSET 0.002365 0.091850 0.046637
							}
						}
					}
					JOINT Spine3_L_Collar
					{
						OFFSET 0.000000 0.000000 0.000000
						CHANNELS 3 Zrotation Yrotation Xrotation
						JOINT L_Collar
						{
							OFFSET 0.072225 0.116603 -0.009480
							CHANNELS 3 Zrotation Yrotation Xrotation
							JOINT L_Shoulder
							{
								OFFSET 0.115937 -0.058643 -0.021018
								CHANNELS 3 Zrotation Yrotation Xrotation
								JOINT L_Elbow
								{
									OFFSET 0.021994 -0.254722 -0.024492
									CHANNELS 3 Zrotation Yrotation Xrotation
									End Site #name: L_Wrist
									{
										OFFSET 0.048810 -0.240214 0.103329
									}
								}
							}
						}
					}
					JOINT Spine3_R_Collar
					{
						OFFSET 0.000000 0.000000 0.000000
						CHANNELS 3 Zrotation Yrotation Xrotation
						JOINT R_Collar
						{
							OFFSET -0.073372 0.120704 -0.024611
							CHANNELS 3 Zrotation Yrotation Xrotation
							JOINT R_Shoulder
							{
								OFFSET -0.108089 -0.054969 -0.020504
								CHANNELS 3 Zrotation Yrotation Xrotation
								JOINT R_Elbow
								{
									OFFSET -0.033684 -0.260739 0.009889
									CHANNELS 3 Zrotation Yrotation Xrotation
									End Site #name: R_Wrist
									{
										OFFSET -0.067980 -0.232763 0.118463
									}
								}
							}
						}
					}
				}
			}
		}
	}
}
MOTION
Frames: 8
Frame Time: 0.041667
0.050698 0.968315 -0.027502 -8.122037 -7.354171 2.770148 0.000000 0.000000 0.000000 3.395441 -0.960325 -3.360844 2.592566 -0.266982 0.977318 -5.422162 -5.301604 6.458583 0.000000 0.000000 0.000000 2.737057 0.737180 -4.702757 -0.188815 0.182032 2.294538 5.037365 -3.961429 13.650383 0.000000 0.000000 0.000000 2.453341 -1.005003 4.496945 -1.762995 0.498839 3.522284 3.259218 2.051259 5.092168 0.000000 0.000000 0.000000 1.840917 -1.289164 10.478351 0.000000 0.000000 0.000000 20.784311 -5.271189 -0.268129 -22.894147 0.890748 -5.517446 2.325979 -13.487362 -57.575779 0.000000 0.000000 0.000000 -28.351647 14.749149 -6.195033 27.444333 -1.574245 6.322142 -4.733878 15.382303 -52.737007 
0.045852 0.968552 -0.028213 -8.065973 -7.540391 2.708466 0.000000 0.000000 0.000000 3.568205 -0.942061 -3.245473 2.699028 -0.278465 1.002594 -5.367492 -5.163341 6.459342 0.000000 0.000000 0.000000 2.918924 0.743397 -4.752022 -0.108992 0.181590 2.483713 5.047034 -3.760468 13.460373 0.000000 0.000000 0.000000 2.560920 -1.011752 4.302939 -1.451597 0.449733 3.702515 3.269562 1.710093 5.093011 0.000000 0.000000 0.000000 2.480863 -1.687454 10.798614 0.000000 0.000000 0.000000 20.940318 -5.658698 -0.608865 -23.625722 1.092617 -5.017827 0.908605 -15.477072 -57.935967 0.000000 0.000000 0.000000 -28.488891 14.265500 -5.645395 26.607753 -1.484163 6.137884 -5.877180 13.893801 -52.871620 
0.040512 0.968931 -0.028801 -7.984855 -7.698234 2.619018 0.000000 0.000000 0.000000 3.711647 -0.910944 -3.073106 2.859238 -0.292778 0.982899 -5.339442 -5.066415 6.478657 0.000000 0.000000 0.000000 3.091006 0.740272 -4.751195 0.007399 0.173383 2.653960 5.047094 -3.619701 13.310365 0.000000 0.000000 0.000000 2.692433 -1.027857 4.142616 -1.169778 0.408583 3.932141 3.263672 1.294943 5.047058 0.000000 0.000000 0.000000 3.056452 -2.043929 11.117158 0.000000 0.000000 0.000000 20.926740 -6.259886 -1.141218 -24.442446 1.343211 -4.407771 -0.339944 -17.092658 -57.904587 0.000000 0.000000 0.000000 -28.611220 13.832330 -5.132161 25.651109 -1.362433 5.873180 -6.880315 12.376724 -52.532661 
0.034867 0.969116 -0.029477 -7.914279 -7.782835 2.590423 0.000000 0.000000 0.000000 3.930803 -0.914398 -3.049075 2.977367 -0.307211 1.049926 -5.367505 -5.002687 6.568946 0.000000 0.000000 0.000000 3.282740 0.761163 -4.872006 0.178508 0.162556 2.933515 4.968502 -3.593036 13.110369 0.000000 0.000000 0.000000 2.941974 -1.082075 4.051581 -0.959098 0.374403 4.054856 3.180203 0.833226 4.987790 0.000000 0.000000 0.000000 3.600842 -2.378124 11.341968 0.000000 0.000000 0.000000 20.731734 -6.980406 -1.780703 -25.398187 1.616014 -3.804229 -1.495661 -18.274311 -57.196162 0.000000 0.000000 0.000000 -28.712147 13.433403 -4.652500 24.550620 -1.190126 5.462053 -7.633631 10.946749 -51.612607 
0.028627 0.969427 -0.030387 -7.792256 -7.868960 2.538459 0.000000 0.000000 0.000000 4.131836 -0.912289 -3.002089 3.072337 -0.319446 1.114418 -5.363212 -4.963177 6.590342 0.000000 0.000000 0.000000 3.445827 0.776931 -4.962642 0.337488 0.151361 3.183962 4.945314 -3.559749 13.019536 0.000000 0.000000 0.000000 3.200269 -1.148866 4.064941 -0.803498 0.351093 4.183646 3.031422 0.417219 4.875671 0.000000 0.000000 0.000000 4.077792 -2.669687 11.526266 0.000000 0.000000 0.000000 20.440294 -7.704270 -2.419534 -26.139252 1.789362 -3.484790 -2.774339 -19.265985 -55.841328 0.000000 0.000000 0.000000 -28.733297 13.132451 -4.280641 23.448705 -0.988089 4.948445 -8.256527 9.502958 -50.082370 
0.022048 0.969725 -0.031545 -7.669358 -7.990858 2.483524 0.000000 0.000000 0.000000 4.349353 -0.912797 -2.966176 3.169696 -0.333037 1.196644 -5.373887 -4.883457 6.663312 0.000000 0.000000 0.000000 3.595321 0.807658 -5.125027 0.562131 0.134654 3.538000 4.922124 -3.491561 12.893871 0.000000 0.000000 0.000000 3.459067 -1.226734 4.183272 -0.655619 0.331924 4.365185 2.880732 0.067258 4.719325 0.000000 0.000000 0.000000 4.398738 -2.859836 11.664864 0.000000 0.000000 0.000000 20.176449 -8.528738 -3.122300 -26.518314 1.877867 -3.336982 -4.236984 -20.131289 -53.903087 0.000000 0.000000 0.000000 -28.705736 13.025872 -4.103254 22.348611 -0.794867 4.437116 -8.914212 7.888767 -48.063012 
0.015239 0.970226 -0.033146 -7.562846 -8.142939 2.438274 0.000000 0.000000 0.000000 4.603510 -0.915545 -2.935138 3.250140 -0.344025 1.255233 -5.389301 -4.800562 6.748601 0.000000 0.000000 0.000000 3.754662 0.858168 -5.381702 0.835371 0.113837 3.982175 4.895777 -3.419999 12.755372 0.000000 0.000000 0.000000 3.729849 -1.324030 4.448360 -0.486552 0.309900 4.578854 2.749624 -0.309551 4.526919 0.000000 0.000000 0.000000 4.581973 -2.953461 11.722267 0.000000 0.000000 0.000000 19.901527 -9.470051 -3.914899 -26.659769 1.978603 -3.096398 -5.638039 -20.715289 -51.705128 0.000000 0.000000 0.000000 -28.624356 13.006069 -4.004677 21.086424 -0.578588 3.828731 -9.452137 6.390009 -45.675373 
0.008457 0.970833 -0.035271 -7.460220 -8.312676 2.430544 0.000000 0.000000 0.000000 4.877113 -0.924335 -2.930976 3.315193 -0.349663 1.235116 -5.445673 -4.706599 6.912004 0.000000 0.000000 0.000000 3.941015 0.909939 -5.643054 1.067100 0.089850 4.271686 4.882290 -3.341028 12.634102 0.000000 0.000000 0.000000 4.061416 -1.461553 4.920473 -0.370229 0.294495 4.726334 2.606740 -0.746516 4.260229 0.000000 0.000000 0.000000 4.703800 -2.997408 11.675858 0.000000 0.000000 0.000000 19.562079 -10.516239 -4.791472 -26.762166 2.122702 -2.718096 -6.675940 -20.805760 -49.493532 0.000000 0.000000 0.000000 -28.523030 13.111060 -4.012541 19.748846 -0.327931 3.067892 -9.601956 5.261572 -42.782188 
